
<svg width="100" height="100" viewBox="0 0 100 100" fill="none" xmlns="http://www.w3.org/2000/svg">
  <!-- Внешний круг (слегка закругленный) -->
  <circle cx="50" cy="50" r="45" fill="#222222" stroke="#444444" stroke-width="2" />
  
  <!-- Внутренний круг (основа глаза) -->
  <circle cx="50" cy="50" r="25" fill="#F0F0F0" />
  
  <!-- Радужка (верхняя часть - синяя) -->
  <path d="M50 25C38.954 25 30 33.954 30 45C30 56.046 38.954 65 50 65C61.046 65 70 56.046 70 45C70 33.954 61.046 25 50 25Z" fill="#3870B5" />
  
  <!-- Радужка (нижняя часть - оранжевая/коричневая) -->
  <path d="M50 45C38.954 45 30 48.134 30 52C30 55.866 38.954 65 50 65C61.046 65 70 55.866 70 52C70 48.134 61.046 45 50 45Z" fill="#D35536" />
  
  <!-- Зрачок -->
  <circle cx="50" cy="45" r="12" fill="#222222" />
  
  <!-- Блик на зрачке -->
  <circle cx="45" cy="40" r="3" fill="#FFFFFF" />
</svg>
